<?xml version="1.0" encoding="UTF-8" standalone="no"?>
<svg
   xmlns:dc="http://purl.org/dc/elements/1.1/"
   xmlns:cc="http://creativecommons.org/ns#"
   xmlns:rdf="http://www.w3.org/1999/02/22-rdf-syntax-ns#"
   xmlns:svg="http://www.w3.org/2000/svg"
   xmlns="http://www.w3.org/2000/svg"
   xmlns:sodipodi="http://sodipodi.sourceforge.net/DTD/sodipodi-0.dtd"
   xmlns:inkscape="http://www.inkscape.org/namespaces/inkscape"
   sodipodi:docname="6. Law.svg"
   inkscape:version="1.0 (4035a4fb49, 2020-05-01)"
   id="svg979"
   version="1.1"
   viewBox="0 0 16.933334 16.933333"
   height="48pt"
   width="48pt"
   inkscape:export-filename="C:\Users\RainBoyz\Desktop\EXPORT FLAT\6. Law.png"
   inkscape:export-xdpi="768"
   inkscape:export-ydpi="768">
  <defs
     id="defs973" />
  <sodipodi:namedview
     inkscape:snap-nodes="false"
     inkscape:bbox-nodes="true"
     inkscape:snap-bbox="true"
     inkscape:document-rotation="0"
     inkscape:window-maximized="1"
     inkscape:window-y="-8"
     inkscape:window-x="-8"
     inkscape:window-height="715"
     inkscape:window-width="1366"
     units="pt"
     showgrid="false"
     inkscape:current-layer="layer1"
     inkscape:document-units="pt"
     inkscape:cy="26.741684"
     inkscape:cx="-16.931739"
     inkscape:zoom="6.0435533"
     inkscape:pageshadow="2"
     inkscape:pageopacity="0.0"
     borderopacity="1.0"
     bordercolor="#666666"
     pagecolor="#ffffff"
     id="base">
    <inkscape:grid
       id="grid1526"
       type="xygrid" />
    <sodipodi:guide
       inkscape:locked="false"
       id="guide1528"
       orientation="56.666615,0"
       position="0.97013909,15.963209" />
    <sodipodi:guide
       inkscape:locked="false"
       id="guide1530"
       orientation="0,56.666667"
       position="0.97013909,0.97016731" />
    <sodipodi:guide
       inkscape:locked="false"
       id="guide1532"
       orientation="-56.666615,0"
       position="15.963195,0.97016731" />
    <sodipodi:guide
       inkscape:locked="false"
       id="guide1534"
       orientation="0,-56.666667"
       position="15.963195,15.963209" />
  </sodipodi:namedview>
  <metadata
     id="metadata976">
    <rdf:RDF>
      <cc:Work
         rdf:about="">
        <dc:format>image/svg+xml</dc:format>
        <dc:type
           rdf:resource="http://purl.org/dc/dcmitype/StillImage" />
        <dc:title />
      </cc:Work>
    </rdf:RDF>
  </metadata>
  <g
     transform="translate(0,-280.06668)"
     id="layer1"
     inkscape:groupmode="layer"
     inkscape:label="Layer 1">
    <g
       id="g1135"
       transform="matrix(1.23185,0,0,1.23185,54.878781,-69.504342)">
      <path
         style="color:#000000;font-style:normal;font-variant:normal;font-weight:normal;font-stretch:normal;font-size:medium;line-height:normal;font-family:sans-serif;font-variant-ligatures:normal;font-variant-position:normal;font-variant-caps:normal;font-variant-numeric:normal;font-variant-alternates:normal;font-variant-east-asian:normal;font-feature-settings:normal;font-variation-settings:normal;text-indent:0;text-align:start;text-decoration:none;text-decoration-line:none;text-decoration-style:solid;text-decoration-color:#000000;letter-spacing:normal;word-spacing:normal;text-transform:none;writing-mode:lr-tb;direction:ltr;text-orientation:mixed;dominant-baseline:auto;baseline-shift:baseline;text-anchor:start;white-space:normal;shape-padding:0;shape-margin:0;inline-size:0;clip-rule:nonzero;display:inline;overflow:visible;visibility:visible;opacity:1;isolation:auto;mix-blend-mode:normal;color-interpolation:sRGB;color-interpolation-filters:linearRGB;solid-color:#000000;solid-opacity:1;vector-effect:none;fill:#9b615d;fill-opacity:1;fill-rule:nonzero;stroke:none;stroke-width:0.529167;stroke-linecap:round;stroke-linejoin:round;stroke-miterlimit:4;stroke-dasharray:none;stroke-dashoffset:0;stroke-opacity:1;color-rendering:auto;image-rendering:auto;shape-rendering:auto;text-rendering:auto;enable-background:accumulate;stop-color:#000000;stop-opacity:1"
         d="m -37.677734,287.3418 a 0.2645835,0.2645835 0 0 0 -0.263672,0.26562 v 1.45703 a 0.2645835,0.2645835 0 0 0 0.263672,0.26367 0.2645835,0.2645835 0 0 0 0.265625,-0.26367 v -1.45703 a 0.2645835,0.2645835 0 0 0 -0.265625,-0.26562 z"
         id="path267" />
      <path
         style="color:#000000;font-style:normal;font-variant:normal;font-weight:normal;font-stretch:normal;font-size:medium;line-height:normal;font-family:sans-serif;font-variant-ligatures:normal;font-variant-position:normal;font-variant-caps:normal;font-variant-numeric:normal;font-variant-alternates:normal;font-variant-east-asian:normal;font-feature-settings:normal;font-variation-settings:normal;text-indent:0;text-align:start;text-decoration:none;text-decoration-line:none;text-decoration-style:solid;text-decoration-color:#000000;letter-spacing:normal;word-spacing:normal;text-transform:none;writing-mode:lr-tb;direction:ltr;text-orientation:mixed;dominant-baseline:auto;baseline-shift:baseline;text-anchor:start;white-space:normal;shape-padding:0;shape-margin:0;inline-size:0;clip-rule:nonzero;display:inline;overflow:visible;visibility:visible;isolation:auto;mix-blend-mode:normal;color-interpolation:sRGB;color-interpolation-filters:linearRGB;solid-color:#000000;solid-opacity:1;vector-effect:none;fill:#febe40;fill-opacity:1;fill-rule:nonzero;stroke:none;stroke-width:0.529167;stroke-linecap:round;stroke-linejoin:round;stroke-miterlimit:4;stroke-dasharray:none;stroke-dashoffset:0;stroke-opacity:1;color-rendering:auto;image-rendering:auto;shape-rendering:auto;text-rendering:auto;enable-background:accumulate;stop-color:#000000"
         d="m -38.259766,286.15234 a 0.26460996,0.26460996 0 0 0 -0.263672,0.26368 v 0.60937 c 0,0.46442 0.381282,0.84572 0.845704,0.8457 0.464421,2e-5 0.847656,-0.38128 0.847656,-0.8457 v -0.60937 a 0.26460996,0.26460996 0 0 0 -0.265625,-0.26368 z"
         id="path255" />
      <path
         id="path1281"
         style="color:#000000;font-style:normal;font-variant:normal;font-weight:normal;font-stretch:normal;font-size:medium;line-height:normal;font-family:sans-serif;font-variant-ligatures:normal;font-variant-position:normal;font-variant-caps:normal;font-variant-numeric:normal;font-variant-alternates:normal;font-variant-east-asian:normal;font-feature-settings:normal;font-variation-settings:normal;text-indent:0;text-align:start;text-decoration:none;text-decoration-line:none;text-decoration-style:solid;text-decoration-color:#000000;letter-spacing:normal;word-spacing:normal;text-transform:none;writing-mode:lr-tb;direction:ltr;text-orientation:mixed;dominant-baseline:auto;baseline-shift:baseline;text-anchor:start;white-space:normal;shape-padding:0;shape-margin:0;inline-size:0;clip-rule:nonzero;display:inline;overflow:visible;visibility:visible;isolation:auto;mix-blend-mode:normal;color-interpolation:sRGB;color-interpolation-filters:linearRGB;solid-color:#000000;solid-opacity:1;vector-effect:none;fill:#e29601;fill-opacity:1;fill-rule:nonzero;stroke:none;stroke-width:0.529167;stroke-linecap:round;stroke-linejoin:round;stroke-miterlimit:4;stroke-dasharray:none;stroke-dashoffset:0;stroke-opacity:1;color-rendering:auto;image-rendering:auto;shape-rendering:auto;text-rendering:auto;enable-background:accumulate;stop-color:#000000"
         d="m -38.259681,286.1526 a 0.26460995,0.26460995 0 0 0 -0.263549,0.26355 v 0.60926 c 0,0.1019 0.0207,0.19865 0.05426,0.28939 a 0.26460995,0.26460995 0 0 1 0.209288,-0.10387 h 1.163754 a 0.26460995,0.26460995 0 0 1 0.211357,0.10336 c 0.0336,-0.0906 0.05426,-0.18715 0.05426,-0.28888 v -0.60926 a 0.26460995,0.26460995 0 0 0 -0.265618,-0.26355 z" />
      <path
         style="color:#000000;font-style:normal;font-variant:normal;font-weight:normal;font-stretch:normal;font-size:medium;line-height:normal;font-family:sans-serif;font-variant-ligatures:normal;font-variant-position:normal;font-variant-caps:normal;font-variant-numeric:normal;font-variant-alternates:normal;font-variant-east-asian:normal;font-feature-settings:normal;font-variation-settings:normal;text-indent:0;text-align:start;text-decoration:none;text-decoration-line:none;text-decoration-style:solid;text-decoration-color:#000000;letter-spacing:normal;word-spacing:normal;text-transform:none;writing-mode:lr-tb;direction:ltr;text-orientation:mixed;dominant-baseline:auto;baseline-shift:baseline;text-anchor:start;white-space:normal;shape-padding:0;shape-margin:0;inline-size:0;clip-rule:nonzero;display:inline;overflow:visible;visibility:visible;opacity:1;isolation:auto;mix-blend-mode:normal;color-interpolation:sRGB;color-interpolation-filters:linearRGB;solid-color:#000000;solid-opacity:1;vector-effect:none;fill:#febe40;fill-opacity:1;fill-rule:nonzero;stroke:none;stroke-width:0.529167;stroke-linecap:round;stroke-linejoin:round;stroke-miterlimit:4;stroke-dasharray:none;stroke-dashoffset:0;stroke-opacity:1;color-rendering:auto;image-rendering:auto;shape-rendering:auto;text-rendering:auto;enable-background:accumulate;stop-color:#000000;stop-opacity:1"
         d="m -41.761719,291.12695 a 0.26460996,0.26460996 0 0 0 -0.226562,0.14649 l -1.746094,3.49218 a 0.2645835,0.2645835 0 0 0 0.119141,0.35547 0.2645835,0.2645835 0 0 0 0.353515,-0.11914 l 1.509766,-3.01953 1.509765,3.01953 a 0.2645835,0.2645835 0 0 0 0.355469,0.11914 0.2645835,0.2645835 0 0 0 0.117188,-0.35547 l -1.746094,-3.49218 a 0.26460996,0.26460996 0 0 0 -0.246094,-0.14649 z"
         id="path313" />
      <path
         style="color:#000000;font-style:normal;font-variant:normal;font-weight:normal;font-stretch:normal;font-size:medium;line-height:normal;font-family:sans-serif;font-variant-ligatures:normal;font-variant-position:normal;font-variant-caps:normal;font-variant-numeric:normal;font-variant-alternates:normal;font-variant-east-asian:normal;font-feature-settings:normal;font-variation-settings:normal;text-indent:0;text-align:start;text-decoration:none;text-decoration-line:none;text-decoration-style:solid;text-decoration-color:#000000;letter-spacing:normal;word-spacing:normal;text-transform:none;writing-mode:lr-tb;direction:ltr;text-orientation:mixed;dominant-baseline:auto;baseline-shift:baseline;text-anchor:start;white-space:normal;shape-padding:0;shape-margin:0;inline-size:0;clip-rule:nonzero;display:inline;overflow:visible;visibility:visible;opacity:1;isolation:auto;mix-blend-mode:normal;color-interpolation:sRGB;color-interpolation-filters:linearRGB;solid-color:#000000;solid-opacity:1;vector-effect:none;fill:#febe40;fill-opacity:1;fill-rule:nonzero;stroke:none;stroke-width:0.529167;stroke-linecap:round;stroke-linejoin:round;stroke-miterlimit:4;stroke-dasharray:none;stroke-dashoffset:0;stroke-opacity:1;color-rendering:auto;image-rendering:auto;shape-rendering:auto;text-rendering:auto;enable-background:accumulate;stop-color:#000000;stop-opacity:1"
         d="m -33.611328,291.12695 a 0.26460996,0.26460996 0 0 0 -0.226563,0.14649 l -1.746093,3.49218 a 0.2645835,0.2645835 0 0 0 0.117187,0.35547 0.2645835,0.2645835 0 0 0 0.355469,-0.11914 l 1.509766,-3.01953 1.509765,3.01953 a 0.2645835,0.2645835 0 0 0 0.353516,0.11914 0.2645835,0.2645835 0 0 0 0.11914,-0.35547 l -1.746093,-3.49218 a 0.26460996,0.26460996 0 0 0 -0.246094,-0.14649 z"
         id="path317" />
      <path
         style="color:#000000;font-style:normal;font-variant:normal;font-weight:normal;font-stretch:normal;font-size:medium;line-height:normal;font-family:sans-serif;font-variant-ligatures:normal;font-variant-position:normal;font-variant-caps:normal;font-variant-numeric:normal;font-variant-alternates:normal;font-variant-east-asian:normal;font-feature-settings:normal;font-variation-settings:normal;text-indent:0;text-align:start;text-decoration:none;text-decoration-line:none;text-decoration-style:solid;text-decoration-color:#000000;letter-spacing:normal;word-spacing:normal;text-transform:none;writing-mode:lr-tb;direction:ltr;text-orientation:mixed;dominant-baseline:auto;baseline-shift:baseline;text-anchor:start;white-space:normal;shape-padding:0;shape-margin:0;inline-size:0;clip-rule:nonzero;display:inline;overflow:visible;visibility:visible;isolation:auto;mix-blend-mode:normal;color-interpolation:sRGB;color-interpolation-filters:linearRGB;solid-color:#000000;solid-opacity:1;vector-effect:none;fill:#9b615d;fill-opacity:1;fill-rule:nonzero;stroke:none;stroke-width:0.529167;stroke-linecap:round;stroke-linejoin:round;stroke-miterlimit:4;stroke-dasharray:none;stroke-dashoffset:0;stroke-opacity:1;color-rendering:auto;image-rendering:auto;shape-rendering:auto;text-rendering:auto;enable-background:accumulate;stop-color:#000000"
         d="m -40.587891,284.69727 c -0.464416,0 -0.845705,0.38128 -0.845703,0.8457 v 0.29101 c -2e-6,0.46442 0.381287,0.84766 0.845703,0.84766 h 5.820313 c 0.464416,0 0.845705,-0.38324 0.845703,-0.84766 v -0.29101 c 2e-6,-0.46442 -0.381287,-0.8457 -0.845703,-0.8457 z"
         id="path243" />
      <path
         style="color:#000000;font-style:normal;font-variant:normal;font-weight:normal;font-stretch:normal;font-size:medium;line-height:normal;font-family:sans-serif;font-variant-ligatures:normal;font-variant-position:normal;font-variant-caps:normal;font-variant-numeric:normal;font-variant-alternates:normal;font-variant-east-asian:normal;font-feature-settings:normal;font-variation-settings:normal;text-indent:0;text-align:start;text-decoration:none;text-decoration-line:none;text-decoration-style:solid;text-decoration-color:#000000;letter-spacing:normal;word-spacing:normal;text-transform:none;writing-mode:lr-tb;direction:ltr;text-orientation:mixed;dominant-baseline:auto;baseline-shift:baseline;text-anchor:start;white-space:normal;shape-padding:0;shape-margin:0;inline-size:0;clip-rule:nonzero;display:inline;overflow:visible;visibility:visible;isolation:auto;mix-blend-mode:normal;color-interpolation:sRGB;color-interpolation-filters:linearRGB;solid-color:#000000;solid-opacity:1;vector-effect:none;fill:#9b615d;fill-opacity:1;fill-rule:nonzero;stroke:none;stroke-width:0.529167;stroke-linecap:round;stroke-linejoin:round;stroke-miterlimit:4;stroke-dasharray:none;stroke-dashoffset:0;stroke-opacity:1;color-rendering:auto;image-rendering:auto;shape-rendering:auto;text-rendering:auto;enable-background:accumulate;stop-color:#000000"
         d="m -40.431641,289.37109 c -0.618029,0.0709 -1.214059,0.31493 -2.058593,0.9336 a 0.26460996,0.26460996 0 0 0 -0.0918,0.12304 c -0.09728,0.26383 -0.13131,0.54811 0.01172,0.79297 0.143028,0.24487 0.4226,0.37666 0.779296,0.43164 a 0.26460996,0.26460996 0 0 0 0.195313,-0.0469 c 0.805544,-0.5901 1.14124,-0.70227 1.517578,-0.69922 0.376338,0.003 0.869694,0.16185 1.816406,0.17773 a 0.26460996,0.26460996 0 0 0 0.269531,-0.26562 v -1.17188 a 0.26460996,0.26460996 0 0 0 -0.267578,-0.26562 c -0.949329,0.006 -1.553846,-0.0807 -2.171875,-0.01 z"
         id="path287" />
      <path
         transform="matrix(0.26458333,0,0,0.26458333,0,284.3)"
         d="m -151.04883,19.0625 c -0.59874,0.0072 -1.17971,0.03671 -1.76367,0.103516 -1.36386,0.156461 -2.70417,0.546564 -4.21484,1.300781 2.31053,0.500181 4.70657,0.924733 5.44726,1.369141 1.45126,0.870766 2.09786,2.121323 2.53125,3.419921 1.12697,0.168221 2.52715,0.352722 4.4375,0.384766 a 1.0001006,1.0001006 0 0 0 1.01953,-1.003906 v -4.429688 a 1.0001006,1.0001006 0 0 0 -1.01172,-1.003906 c -2.69101,0.01701 -4.64908,-0.162257 -6.44531,-0.140625 z"
         style="fill:#82504e;fill-opacity:1;stroke:none;stroke-width:0.999999;stroke-opacity:1"
         id="path1106" />
      <path
         style="color:#000000;font-style:normal;font-variant:normal;font-weight:normal;font-stretch:normal;font-size:medium;line-height:normal;font-family:sans-serif;font-variant-ligatures:normal;font-variant-position:normal;font-variant-caps:normal;font-variant-numeric:normal;font-variant-alternates:normal;font-variant-east-asian:normal;font-feature-settings:normal;font-variation-settings:normal;text-indent:0;text-align:start;text-decoration:none;text-decoration-line:none;text-decoration-style:solid;text-decoration-color:#000000;letter-spacing:normal;word-spacing:normal;text-transform:none;writing-mode:lr-tb;direction:ltr;text-orientation:mixed;dominant-baseline:auto;baseline-shift:baseline;text-anchor:start;white-space:normal;shape-padding:0;shape-margin:0;inline-size:0;clip-rule:nonzero;display:inline;overflow:visible;visibility:visible;isolation:auto;mix-blend-mode:normal;color-interpolation:sRGB;color-interpolation-filters:linearRGB;solid-color:#000000;solid-opacity:1;vector-effect:none;fill:#febe40;fill-opacity:1;fill-rule:nonzero;stroke:none;stroke-width:0.529167;stroke-linecap:round;stroke-linejoin:round;stroke-miterlimit:4;stroke-dasharray:none;stroke-dashoffset:0;stroke-opacity:1;color-rendering:auto;image-rendering:auto;shape-rendering:auto;text-rendering:auto;enable-background:accumulate;stop-color:#000000"
         d="m -43.496094,294.61914 a 0.26460996,0.26460996 0 0 0 -0.265625,0.26367 c -10e-7,0.51194 0.212653,0.96273 0.576172,1.26367 0.363519,0.30095 0.863069,0.45704 1.433594,0.45704 0.570525,0 1.070075,-0.15609 1.433594,-0.45704 0.363519,-0.30094 0.578126,-0.75173 0.578125,-1.26367 a 0.26460996,0.26460996 0 0 0 -0.345704,-0.25195 c -1.071456,0.3435 -2.159168,0.40082 -3.326171,0.002 a 0.26460996,0.26460996 0 0 0 -0.08398,-0.0137 z"
         id="path323" />
      <path
         style="color:#000000;font-style:normal;font-variant:normal;font-weight:normal;font-stretch:normal;font-size:medium;line-height:normal;font-family:sans-serif;font-variant-ligatures:normal;font-variant-position:normal;font-variant-caps:normal;font-variant-numeric:normal;font-variant-alternates:normal;font-variant-east-asian:normal;font-feature-settings:normal;font-variation-settings:normal;text-indent:0;text-align:start;text-decoration:none;text-decoration-line:none;text-decoration-style:solid;text-decoration-color:#000000;letter-spacing:normal;word-spacing:normal;text-transform:none;writing-mode:lr-tb;direction:ltr;text-orientation:mixed;dominant-baseline:auto;baseline-shift:baseline;text-anchor:start;white-space:normal;shape-padding:0;shape-margin:0;inline-size:0;clip-rule:nonzero;display:inline;overflow:visible;visibility:visible;isolation:auto;mix-blend-mode:normal;color-interpolation:sRGB;color-interpolation-filters:linearRGB;solid-color:#000000;solid-opacity:1;vector-effect:none;fill:#9b615d;fill-opacity:1;fill-rule:nonzero;stroke:none;stroke-width:0.529167;stroke-linecap:round;stroke-linejoin:round;stroke-miterlimit:4;stroke-dasharray:none;stroke-dashoffset:0;stroke-opacity:1;color-rendering:auto;image-rendering:auto;shape-rendering:auto;text-rendering:auto;enable-background:accumulate;stop-color:#000000"
         d="m -34.921875,289.37109 c -0.618029,-0.0709 -1.222545,0.0163 -2.171875,0.01 a 0.26460996,0.26460996 0 0 0 -0.267578,0.26562 v 1.17188 a 0.26460996,0.26460996 0 0 0 0.269531,0.26562 c 0.946713,-0.0159 1.440069,-0.17468 1.816406,-0.17773 0.376338,-0.003 0.712034,0.10912 1.517579,0.69922 a 0.26460996,0.26460996 0 0 0 0.197265,0.0469 c 0.356697,-0.055 0.634316,-0.18677 0.777344,-0.43164 0.143028,-0.24486 0.108994,-0.52914 0.01172,-0.79297 a 0.26460996,0.26460996 0 0 0 -0.0918,-0.12304 c -0.844534,-0.61867 -1.440565,-0.86268 -2.058594,-0.9336 z"
         id="path301" />
      <path
         style="color:#000000;font-style:normal;font-variant:normal;font-weight:normal;font-stretch:normal;font-size:medium;line-height:normal;font-family:sans-serif;font-variant-ligatures:normal;font-variant-position:normal;font-variant-caps:normal;font-variant-numeric:normal;font-variant-alternates:normal;font-variant-east-asian:normal;font-feature-settings:normal;font-variation-settings:normal;text-indent:0;text-align:start;text-decoration:none;text-decoration-line:none;text-decoration-style:solid;text-decoration-color:#000000;letter-spacing:normal;word-spacing:normal;text-transform:none;writing-mode:lr-tb;direction:ltr;text-orientation:mixed;dominant-baseline:auto;baseline-shift:baseline;text-anchor:start;white-space:normal;shape-padding:0;shape-margin:0;inline-size:0;clip-rule:nonzero;display:inline;overflow:visible;visibility:visible;isolation:auto;mix-blend-mode:normal;color-interpolation:sRGB;color-interpolation-filters:linearRGB;solid-color:#000000;solid-opacity:1;vector-effect:none;fill:#febe40;fill-opacity:1;fill-rule:nonzero;stroke:none;stroke-width:0.529167;stroke-linecap:round;stroke-linejoin:round;stroke-miterlimit:4;stroke-dasharray:none;stroke-dashoffset:0;stroke-opacity:1;color-rendering:auto;image-rendering:auto;shape-rendering:auto;text-rendering:auto;enable-background:accumulate;stop-color:#000000"
         d="m -37.677734,288.79883 c -0.464422,-2e-5 -0.845703,0.38324 -0.845704,0.84765 v 1.16407 c 0,0.46441 0.381282,0.84571 0.845704,0.8457 0.464421,10e-6 0.847656,-0.38129 0.847656,-0.8457 v -1.16407 c 0,-0.46441 -0.383235,-0.84767 -0.847656,-0.84765 z"
         id="path273" />
      <path
         style="color:#000000;font-style:normal;font-variant:normal;font-weight:normal;font-stretch:normal;font-size:medium;line-height:normal;font-family:sans-serif;font-variant-ligatures:normal;font-variant-position:normal;font-variant-caps:normal;font-variant-numeric:normal;font-variant-alternates:normal;font-variant-east-asian:normal;font-feature-settings:normal;font-variation-settings:normal;text-indent:0;text-align:start;text-decoration:none;text-decoration-line:none;text-decoration-style:solid;text-decoration-color:#000000;letter-spacing:normal;word-spacing:normal;text-transform:none;writing-mode:lr-tb;direction:ltr;text-orientation:mixed;dominant-baseline:auto;baseline-shift:baseline;text-anchor:start;white-space:normal;shape-padding:0;shape-margin:0;inline-size:0;clip-rule:nonzero;display:inline;overflow:visible;visibility:visible;isolation:auto;mix-blend-mode:normal;color-interpolation:sRGB;color-interpolation-filters:linearRGB;solid-color:#000000;solid-opacity:1;vector-effect:none;fill:#febe40;fill-opacity:1;fill-rule:nonzero;stroke:none;stroke-width:0.529167;stroke-linecap:round;stroke-linejoin:round;stroke-miterlimit:4;stroke-dasharray:none;stroke-dashoffset:0;stroke-opacity:1;color-rendering:auto;image-rendering:auto;shape-rendering:auto;text-rendering:auto;enable-background:accumulate;stop-color:#000000"
         d="m -35.351562,294.61914 a 0.26460996,0.26460996 0 0 0 -0.261719,0.26367 c -10e-7,0.51194 0.214606,0.96273 0.578125,1.26367 0.363519,0.30095 0.863069,0.45704 1.433594,0.45704 0.570524,0 1.070074,-0.15609 1.433593,-0.45704 0.363519,-0.30094 0.576173,-0.75173 0.576172,-1.26367 a 0.26460996,0.26460996 0 0 0 -0.349609,-0.25 c -1.167003,0.39887 -2.254716,0.34155 -3.326172,-0.002 a 0.26460996,0.26460996 0 0 0 -0.08398,-0.0117 z"
         id="path337" />
      <path
         id="path1116"
         style="fill:#82504e;fill-opacity:1;stroke:none;stroke-width:0.264583;stroke-opacity:1"
         d="m -35.388513,289.34369 c 0.158417,0.002 0.312132,0.01 0.466638,0.0274 0.360855,0.0414 0.715478,0.14461 1.115177,0.34416 -0.611328,0.13234 -1.24528,0.24467 -1.441255,0.36226 -0.383979,0.23039 -0.555058,0.56126 -0.669726,0.90485 -0.298178,0.0445 -0.668642,0.0933 -1.174089,0.1018 a 0.26460995,0.26460995 0 0 1 -0.26975,-0.26561 v -1.17203 a 0.26460995,0.26460995 0 0 1 0.267684,-0.26561 c 0.711996,0.005 1.230069,-0.0429 1.705321,-0.0372 z" />
      <path
         id="path1190"
         style="color:#000000;font-style:normal;font-variant:normal;font-weight:normal;font-stretch:normal;font-size:medium;line-height:normal;font-family:sans-serif;font-variant-ligatures:normal;font-variant-position:normal;font-variant-caps:normal;font-variant-numeric:normal;font-variant-alternates:normal;font-variant-east-asian:normal;font-feature-settings:normal;font-variation-settings:normal;text-indent:0;text-align:start;text-decoration:none;text-decoration-line:none;text-decoration-style:solid;text-decoration-color:#000000;letter-spacing:normal;word-spacing:normal;text-transform:none;writing-mode:lr-tb;direction:ltr;text-orientation:mixed;dominant-baseline:auto;baseline-shift:baseline;text-anchor:start;white-space:normal;shape-padding:0;shape-margin:0;inline-size:0;clip-rule:nonzero;display:inline;overflow:visible;visibility:visible;isolation:auto;mix-blend-mode:normal;color-interpolation:sRGB;color-interpolation-filters:linearRGB;solid-color:#000000;solid-opacity:1;vector-effect:none;fill:#e29601;fill-opacity:1;fill-rule:nonzero;stroke:none;stroke-width:0.529167;stroke-linecap:round;stroke-linejoin:round;stroke-miterlimit:4;stroke-dasharray:none;stroke-dashoffset:0;stroke-opacity:1;color-rendering:auto;image-rendering:auto;shape-rendering:auto;text-rendering:auto;enable-background:accumulate;stop-color:#000000"
         d="m -37.677804,288.79895 c -0.369493,-2e-5 -0.682752,0.24418 -0.796851,0.57723 0.0847,-0.0289 0.173707,-0.0481 0.267684,-0.0481 0.464424,-2e-5 0.847495,0.38308 0.847495,0.84749 v 1.16427 c 0,0.094 -0.01867,0.183 -0.04754,0.26768 0.33305,-0.11409 0.57671,-0.42736 0.57671,-0.79685 v -1.16427 c 0,-0.46441 -0.383072,-0.84751 -0.847495,-0.84749 z" />
      <path
         id="path1195"
         style="color:#000000;font-style:normal;font-variant:normal;font-weight:normal;font-stretch:normal;font-size:medium;line-height:normal;font-family:sans-serif;font-variant-ligatures:normal;font-variant-position:normal;font-variant-caps:normal;font-variant-numeric:normal;font-variant-alternates:normal;font-variant-east-asian:normal;font-feature-settings:normal;font-variation-settings:normal;text-indent:0;text-align:start;text-decoration:none;text-decoration-line:none;text-decoration-style:solid;text-decoration-color:#000000;letter-spacing:normal;word-spacing:normal;text-transform:none;writing-mode:lr-tb;direction:ltr;text-orientation:mixed;dominant-baseline:auto;baseline-shift:baseline;text-anchor:start;white-space:normal;shape-padding:0;shape-margin:0;inline-size:0;clip-rule:nonzero;display:inline;overflow:visible;visibility:visible;isolation:auto;mix-blend-mode:normal;color-interpolation:sRGB;color-interpolation-filters:linearRGB;solid-color:#000000;solid-opacity:1;vector-effect:none;fill:#e29601;fill-opacity:1;fill-rule:nonzero;stroke:none;stroke-width:0.529167;stroke-linecap:round;stroke-linejoin:round;stroke-miterlimit:4;stroke-dasharray:none;stroke-dashoffset:0;stroke-opacity:1;color-rendering:auto;image-rendering:auto;shape-rendering:auto;text-rendering:auto;enable-background:accumulate;stop-color:#000000"
         d="m -40.012027,294.61823 a 0.26460995,0.26460995 0 0 0 -0.0739,0.0124 c -1.071457,0.3435 -2.159407,0.40088 -3.32641,0.002 a 0.26460995,0.26460995 0 0 0 -0.08372,-0.0134 0.26460995,0.26460995 0 0 0 -0.265618,0.26355 c 0,0.11798 0.01228,0.23221 0.03411,0.34261 1.086149,0.3221 2.107036,0.25671 3.112471,-0.0656 a 0.26460995,0.26460995 0 0 1 0.345716,0.25218 c 0,0.31997 -0.08402,0.61608 -0.235644,0.86662 0.06505,-0.0408 0.128233,-0.084 0.18655,-0.13229 0.363519,-0.30094 0.578263,-0.75155 0.57826,-1.26349 a 0.26460995,0.26460995 0 0 0 -0.271817,-0.26459 z" />
      <path
         id="path1201"
         style="color:#000000;font-style:normal;font-variant:normal;font-weight:normal;font-stretch:normal;font-size:medium;line-height:normal;font-family:sans-serif;font-variant-ligatures:normal;font-variant-position:normal;font-variant-caps:normal;font-variant-numeric:normal;font-variant-alternates:normal;font-variant-east-asian:normal;font-feature-settings:normal;font-variation-settings:normal;text-indent:0;text-align:start;text-decoration:none;text-decoration-line:none;text-decoration-style:solid;text-decoration-color:#000000;letter-spacing:normal;word-spacing:normal;text-transform:none;writing-mode:lr-tb;direction:ltr;text-orientation:mixed;dominant-baseline:auto;baseline-shift:baseline;text-anchor:start;white-space:normal;shape-padding:0;shape-margin:0;inline-size:0;clip-rule:nonzero;display:inline;overflow:visible;visibility:visible;isolation:auto;mix-blend-mode:normal;color-interpolation:sRGB;color-interpolation-filters:linearRGB;solid-color:#000000;solid-opacity:1;vector-effect:none;fill:#e29601;fill-opacity:1;fill-rule:nonzero;stroke:none;stroke-width:0.529167;stroke-linecap:round;stroke-linejoin:round;stroke-miterlimit:4;stroke-dasharray:none;stroke-dashoffset:0;stroke-opacity:1;color-rendering:auto;image-rendering:auto;shape-rendering:auto;text-rendering:auto;enable-background:accumulate;stop-color:#000000"
         d="m -31.864204,294.61875 a 0.26460995,0.26460995 0 0 0 -0.077,0.014 c -1.167003,0.39887 -2.254954,0.34149 -3.326411,-0.002 a 0.26460995,0.26460995 0 0 0 -0.08372,-0.0114 0.26460995,0.26460995 0 0 0 -0.261998,0.26355 c 0,0.11689 0.01251,0.23005 0.0341,0.33951 1.001371,0.28354 2.020713,0.31146 3.108854,-0.0605 a 0.26460995,0.26460995 0 0 1 0.349335,0.25011 c 0,0.32038 -0.08319,0.61691 -0.234612,0.86765 0.06549,-0.041 0.128911,-0.0847 0.187585,-0.13332 0.363519,-0.30094 0.576193,-0.75155 0.576193,-1.26349 a 0.26460995,0.26460995 0 0 0 -0.272335,-0.26407 z" />
      <path
         transform="matrix(0.26458333,0,0,0.26458333,0,284.3)"
         d="m -153.40234,1.5019531 c -1.62081,0 -2.95849,1.2324762 -3.15625,2.8027344 4.08143,1.8651344 16.20744,1.5324658 19.00781,2.5507813 1.51813,0.5520497 2.69811,1.3167928 3.74219,2.1464843 h 2.40429 c 1.75528,0 3.19532,-1.4497899 3.19532,-3.2050781 V 4.6972656 c 0,-1.7552882 -1.44004,-3.1953125 -3.19532,-3.1953125 z"
         style="fill:#82504e;fill-opacity:1;stroke-width:0.999999"
         id="path271" />
    </g>
  </g>
</svg>
