<?xml version="1.0" encoding="utf-8"?>
<!-- Generator: Adobe Illustrator 22.1.0, SVG Export Plug-In . SVG Version: 6.00 Build 0)  -->
<svg version="1.1" baseProfile="basic" id="Layer_1"
	 xmlns="http://www.w3.org/2000/svg" xmlns:xlink="http://www.w3.org/1999/xlink" x="0px" y="0px" width="90px" height="90px"
	 viewBox="0 0 90 90" xml:space="preserve">
<path fill="#D38700" d="M1.15,77.37h25.602c0.635,0,1.15,0.746,1.15,1.666v2.155c0,0.952-0.532,1.724-1.189,1.724H1.189
	C0.533,82.915,0,82.143,0,81.191v-2.155C0,78.116,0.515,77.37,1.15,77.37z"/>
<path fill="#E8B436" d="M1.15,71.825h25.602c0.635,0,1.15,0.746,1.15,1.666v2.155c0,0.952-0.532,1.724-1.189,1.724H1.189
	C0.533,77.37,0,76.598,0,75.646v-2.155C0,72.571,0.515,71.825,1.15,71.825z"/>
<path fill="#D38700" d="M1.15,66.28h25.602c0.635,0,1.15,0.746,1.15,1.666v2.155c0,0.952-0.532,1.724-1.189,1.724H1.189
	C0.533,71.825,0,71.053,0,70.101v-2.155C0,67.026,0.515,66.28,1.15,66.28z"/>
<path fill="#E8B436" d="M1.15,60.735h25.602c0.635,0,1.15,0.746,1.15,1.666v2.155c0,0.952-0.532,1.724-1.189,1.724H1.189
	C0.533,66.28,0,65.508,0,64.556v-2.155C0,61.481,0.515,60.735,1.15,60.735z"/>
<path fill="#D38700" d="M1.15,55.19h25.602c0.635,0,1.15,0.746,1.15,1.666v2.155c0,0.952-0.532,1.724-1.189,1.724H1.189
	C0.533,60.735,0,59.963,0,59.011v-2.155C0,55.936,0.515,55.19,1.15,55.19z"/>
<path fill="#E8B436" d="M1.15,49.645h25.602c0.635,0,1.15,0.746,1.15,1.666v2.155c0,0.952-0.532,1.724-1.189,1.724H1.189
	C0.533,55.19,0,54.418,0,53.466v-2.155C0,50.391,0.515,49.645,1.15,49.645z"/>
<path fill="#D38700" d="M1.15,44.1h25.602c0.635,0,1.15,0.746,1.15,1.666v2.155c0,0.952-0.532,1.724-1.189,1.724H1.189
	C0.533,49.645,0,48.874,0,47.922v-2.155C0,44.846,0.515,44.1,1.15,44.1z"/>
<path fill="#E8B436" d="M1.15,38.556h25.602c0.635,0,1.15,0.746,1.15,1.666v2.155c0,0.952-0.532,1.724-1.189,1.724H1.189
	C0.533,44.1,0,43.329,0,42.377v-2.155C0,39.302,0.515,38.556,1.15,38.556z"/>
<path fill="#E83F3F" d="M78.716,46.426c0.045-0.088,0.089-0.175,0.125-0.268c0.036-0.094,0.063-0.19,0.089-0.287
	c0.025-0.09,0.05-0.179,0.067-0.273c0.019-0.109,0.026-0.217,0.033-0.327c0.004-0.065,0.019-0.126,0.019-0.192V34.111
	c0-1.657-1.343-3-3-3s-3,1.343-3,3v4.194L55.906,22.745c-0.6-0.543-1.384-0.818-2.199-0.773c-0.807,0.049-1.561,0.422-2.089,1.035
	l-6.879,7.971L15.967,4.863c-1.227-1.114-3.124-1.021-4.238,0.206c-1.113,1.227-1.021,3.124,0.206,4.238l31.049,28.181
	c0.598,0.542,1.389,0.818,2.199,0.773c0.807-0.049,1.561-0.422,2.089-1.035l6.88-7.971L68.28,42.079h-3.199c-1.657,0-3,1.343-3,3
	c0,1.657,1.343,3,3,3h10.968c0.42,0,0.819-0.087,1.181-0.243c0.051-0.022,0.098-0.055,0.148-0.08c0.13-0.065,0.258-0.13,0.377-0.213
	c0.059-0.041,0.111-0.093,0.167-0.138c0.103-0.083,0.205-0.168,0.297-0.264c0.016-0.017,0.036-0.028,0.051-0.046
	c0.045-0.05,0.076-0.107,0.118-0.159c0.067-0.084,0.133-0.167,0.191-0.258C78.631,46.596,78.673,46.511,78.716,46.426z"/>
<path fill="#D38700" d="M32.199,77.37h25.602c0.635,0,1.15,0.746,1.15,1.666v2.155c0,0.952-0.532,1.724-1.189,1.724H32.239
	c-0.657,0-1.189-0.772-1.189-1.724v-2.155C31.049,78.116,31.564,77.37,32.199,77.37z"/>
<path fill="#E8B436" d="M32.199,71.825h25.602c0.635,0,1.15,0.746,1.15,1.666v2.155c0,0.952-0.532,1.724-1.189,1.724H32.239
	c-0.657,0-1.189-0.772-1.189-1.724v-2.155C31.049,72.571,31.564,71.825,32.199,71.825z"/>
<path fill="#D38700" d="M32.199,66.28h25.602c0.635,0,1.15,0.746,1.15,1.666v2.155c0,0.952-0.532,1.724-1.189,1.724H32.239
	c-0.657,0-1.189-0.772-1.189-1.724v-2.155C31.049,67.026,31.564,66.28,32.199,66.28z"/>
<path fill="#E8B436" d="M32.199,60.735h25.602c0.635,0,1.15,0.746,1.15,1.666v2.155c0,0.952-0.532,1.724-1.189,1.724H32.239
	c-0.657,0-1.189-0.772-1.189-1.724v-2.155C31.049,61.481,31.564,60.735,32.199,60.735z"/>
<path fill="#D38700" d="M63.248,77.37H88.85c0.635,0,1.15,0.746,1.15,1.666v2.155c0,0.952-0.532,1.724-1.189,1.724H63.288
	c-0.657,0-1.189-0.772-1.189-1.724v-2.155C62.098,78.116,62.613,77.37,63.248,77.37z"/>
<path fill="#E8B436" d="M63.248,71.825H88.85c0.635,0,1.15,0.746,1.15,1.666v2.155c0,0.952-0.532,1.724-1.189,1.724H63.288
	c-0.657,0-1.189-0.772-1.189-1.724v-2.155C62.098,72.571,62.613,71.825,63.248,71.825z"/>
<g>
</g>
<g>
</g>
<g>
</g>
<g>
</g>
<g>
</g>
<g>
</g>
</svg>
