<?xml version="1.0" ?><svg xmlns="http://www.w3.org/2000/svg" xmlns:xlink="http://www.w3.org/1999/xlink" version="1.1" viewBox="0 0 94 94" style="enable-background:new 0 0 94 94;" xml:space="preserve"><style type="text/css">
	.st0{display:none;}
	.st1{display:inline;fill:#FEA900;}
	.st2{display:inline;}
	.st3{display:inline;fill:#F9CD6C;}
	.st4{display:inline;fill:none;stroke:#000000;stroke-width:0.25;stroke-miterlimit:10;}
	.st5{stroke:#000000;stroke-linecap:round;stroke-linejoin:round;stroke-miterlimit:10;}
	.st6{opacity:0.2;stroke:#000000;stroke-linecap:round;stroke-linejoin:round;stroke-miterlimit:10;}
	.st7{fill:#F12A00;stroke:#000000;stroke-linecap:round;stroke-linejoin:round;stroke-miterlimit:10;}
	.st8{fill:#FBECCF;stroke:#000000;stroke-linecap:round;stroke-linejoin:round;stroke-miterlimit:10;}
	.st9{opacity:0.2;fill:#F12A00;}
	.st10{fill:#F7C86C;stroke:#000000;stroke-linecap:round;stroke-linejoin:round;stroke-miterlimit:10;}
	.st11{fill:none;stroke:#000000;stroke-linecap:round;stroke-linejoin:round;stroke-miterlimit:10;}
	.st12{display:inline;stroke:#000000;stroke-linecap:round;stroke-linejoin:round;stroke-miterlimit:10;}
	.st13{fill:#FAAC01;stroke:#000000;stroke-linecap:round;stroke-linejoin:round;stroke-miterlimit:10;}
	.st14{fill:#FAAC01;}
	.st15{display:inline;fill:#FAEBCE;stroke:#000000;stroke-width:0.25;stroke-miterlimit:10;}
	.st16{display:inline;fill:none;stroke:#000000;stroke-width:1.0164;stroke-miterlimit:10;}
	.st17{display:inline;fill:#FAEBCE;stroke:#000000;stroke-width:1.0164;stroke-miterlimit:10;}
	.st18{fill:#FEA900;}
	.st19{fill:#F9CD6C;}
	.st20{fill:none;stroke:#000000;stroke-width:1.0164;stroke-miterlimit:10;}
	.st21{fill:#FAEBCE;stroke:#000000;stroke-width:1.0164;stroke-miterlimit:10;}
	.st22{display:inline;fill:#FAEBCE;}
	.st23{fill:#008FF5;stroke:#000000;stroke-linecap:round;stroke-linejoin:round;stroke-miterlimit:10;}
	.st24{fill:#D0E6FB;stroke:#000000;stroke-linecap:round;stroke-linejoin:round;stroke-miterlimit:10;}
	.st25{fill:#FFFFFF;stroke:#000000;stroke-linecap:round;stroke-linejoin:round;stroke-miterlimit:10;}
	.st26{fill:#75D95D;stroke:#000000;stroke-linecap:round;stroke-linejoin:round;stroke-miterlimit:10;}
	.st27{fill:#CAF3BB;}
	.st28{fill:#FFFFFF;}
	.st29{fill:#CAF3BB;stroke:#000000;stroke-linecap:round;stroke-linejoin:round;stroke-miterlimit:10;}
	.st30{display:inline;fill:#D0E6FB;stroke:#000000;stroke-linecap:round;stroke-linejoin:round;stroke-miterlimit:10;}
	.st31{stroke:#FFFFFF;stroke-linecap:round;stroke-linejoin:round;stroke-miterlimit:10;}
	.st32{fill:#B4B2FB;stroke:#000000;stroke-linecap:round;stroke-linejoin:round;stroke-miterlimit:10;}
	.st33{fill:#018BEE;}
	.st34{display:inline;fill:none;stroke:#000000;stroke-linecap:round;stroke-linejoin:round;stroke-miterlimit:10;}
	.st35{fill:#75D95D;}
	.st36{fill:#4949F7;stroke:#000000;stroke-linecap:round;stroke-linejoin:round;stroke-miterlimit:10;}
	.st37{fill:#D0E6FB;}
	.st38{fill:#6FBBF7;stroke:#000000;stroke-linecap:round;stroke-linejoin:round;stroke-miterlimit:10;}
	.st39{fill:#018BEE;stroke:#000000;stroke-linecap:round;stroke-linejoin:round;stroke-miterlimit:10;}
	.st40{fill:#B4B2FB;}
	.st41{fill:#E8E9FE;}
	.st42{fill:#B4B2FB;stroke:#000F24;stroke-miterlimit:10;}
	.st43{stroke:#000000;stroke-miterlimit:10;}
	.st44{fill:#E8E9FE;stroke:#000000;stroke-linecap:round;stroke-linejoin:round;stroke-miterlimit:10;}
	.st45{opacity:0.3;fill:#018BEE;}
	.st46{fill:#6FBBF7;}
	.st47{fill:#FAAC01;stroke:#FFFFFF;stroke-linecap:round;stroke-linejoin:round;stroke-miterlimit:10;}
	.st48{fill:#006A2F;}
	.st49{opacity:0.1;}
	.st50{fill:#FCD4CA;stroke:#000000;stroke-linecap:round;stroke-linejoin:round;stroke-miterlimit:10;}
	.st51{fill:#006A2F;stroke:#000000;stroke-linecap:round;stroke-linejoin:round;stroke-miterlimit:10;}
	.st52{fill:#4949F7;}
	.st53{fill:#F12A00;}
	.st54{fill:#D0E6FB;stroke:#018BEE;stroke-linecap:round;stroke-linejoin:round;stroke-miterlimit:10;}
	.st55{fill:#9CD7FF;}
	.st56{fill:#F7C86C;}
	.st57{opacity:0.3;stroke:#000000;stroke-linecap:round;stroke-linejoin:round;stroke-miterlimit:10;}
	.st58{opacity:0.1;stroke:#000000;stroke-linecap:round;stroke-linejoin:round;stroke-miterlimit:10;}
	.st59{opacity:0.3;fill:#006A2F;}
	.st60{stroke:#000000;stroke-width:1.0825;stroke-linecap:round;stroke-linejoin:round;stroke-miterlimit:10;}
	.st61{fill:#D0E6FB;stroke:#000000;stroke-width:1.0825;stroke-linecap:round;stroke-linejoin:round;stroke-miterlimit:10;}
	.st62{fill:#6FBBF7;stroke:#000000;stroke-width:1.0825;stroke-linecap:round;stroke-linejoin:round;stroke-miterlimit:10;}
	.st63{fill:none;stroke:#000000;stroke-width:1.0825;stroke-linecap:round;stroke-linejoin:round;stroke-miterlimit:10;}
	.st64{fill:#CAF3BB;stroke:#000000;stroke-width:0.7876;stroke-linecap:round;stroke-linejoin:round;stroke-miterlimit:10;}
	.st65{fill:#6FBBF7;stroke:#FFFFFF;stroke-linecap:round;stroke-linejoin:round;stroke-miterlimit:10;}
	.st66{opacity:0.2;}
	.st67{stroke:#E8E9FE;stroke-linecap:round;stroke-linejoin:round;stroke-miterlimit:10;}
	.st68{fill:#FCD4CA;}
	.st69{fill:#FBECCF;}
	.st70{opacity:0.1;fill:#F12A00;}
	.st71{opacity:0.5;stroke:#000000;stroke-linecap:round;stroke-linejoin:round;stroke-miterlimit:10;}
	.st72{fill:#6FBBF7;stroke:#E8E9FE;stroke-linecap:round;stroke-linejoin:round;stroke-miterlimit:10;}
	.st73{opacity:0.5;fill:#D0E6FB;}
	.st74{fill:#70BAF7;}
	.st75{fill:none;stroke:#FFFFFF;stroke-linecap:round;stroke-linejoin:round;stroke-miterlimit:10;}
	.st76{fill:#70BAF7;stroke:#70BAF7;stroke-linecap:round;stroke-linejoin:round;stroke-miterlimit:10;}
	.st77{fill:#018BEE;stroke:#018BEE;stroke-linecap:round;stroke-linejoin:round;stroke-miterlimit:10;}
	.st78{fill:#70BAF7;stroke:#000000;stroke-linecap:round;stroke-linejoin:round;stroke-miterlimit:10;}
	.st79{fill:#F9CD6C;stroke:#000000;stroke-linecap:round;stroke-linejoin:round;stroke-miterlimit:10;}
	.st80{fill:none;}
	.st81{fill:#006A2F;stroke:#006A2F;stroke-miterlimit:10;}
	.st82{fill:#B4DFFC;}
	.st83{fill:#6FBBF7;stroke:#018BEE;stroke-linecap:round;stroke-linejoin:round;stroke-miterlimit:10;}
	.st84{fill:none;stroke:#FBECCF;stroke-linecap:round;stroke-linejoin:round;stroke-miterlimit:10;}
	.st85{fill:none;stroke:#018BEE;stroke-linecap:round;stroke-linejoin:round;stroke-miterlimit:10;}
	.st86{fill:#010101;stroke:#FFFFFF;stroke-linecap:round;stroke-linejoin:round;stroke-miterlimit:10;}
	.st87{fill:#010101;stroke:#000000;stroke-linecap:round;stroke-linejoin:round;stroke-miterlimit:10;}
	.st88{fill:#75D95D;stroke:#FFFFFF;stroke-linecap:round;stroke-linejoin:round;stroke-miterlimit:10;}
	.st89{fill:#94F279;stroke:#000000;stroke-linecap:round;stroke-linejoin:round;stroke-miterlimit:10;}
	.st90{fill:#8C8CF9;}
	.st91{fill:#008FF5;}
	.st92{fill:#8CD8F9;}
	.st93{fill:#FFC043;}
	.st94{fill:#94F279;}
	.st95{fill:#FF3D1D;}
	.st96{fill:#31B1FF;}
	.st97{fill:#FFCF7B;}
	.st98{fill:#B2FF99;}
	.st99{fill:#D7D7FF;}
	.st100{fill:#FF7C6E;}
	.st101{fill:#5CC9FF;}
	.st102{fill:#F12A00;stroke:#FFFFFF;stroke-linecap:round;stroke-linejoin:round;stroke-miterlimit:10;}
	.st103{fill:#F7C86C;stroke:#000000;stroke-width:1.0164;stroke-miterlimit:10;}
</style><g id="Refrences" class="st0"/><g id="Tittle"/><g id="Icons"><g><g><path class="st5" d="M24.15,39.92l-8.31,0.03c-2.69,0.01-4.87,2.2-4.86,4.9l0.11,25.18c0.01,2.69,2.2,4.87,4.9,4.86l8.16-0.03     V39.92z"/><g><g><g><g><g><g><g><path class="st5" d="M24.15,36.58c-0.83-0.22-1.7-0.3-2.6-0.22c-4.09,0.39-7.1,4.04-6.7,8.13c0.39,4.09,4.04,7.1,8.13,6.7            c0.4-0.04,0.79-0.12,1.17-0.22V36.58z"/><path class="st5" d="M24.15,38.55c-0.75-0.27-1.57-0.39-2.42-0.31c-3.06,0.3-5.31,3.02-5.01,6.08s3.02,5.31,6.08,5.01            c0.47-0.05,0.92-0.15,1.35-0.31V38.55z"/><path class="st5" d="M24.15,38.55c-0.62-0.22-1.28-0.34-1.97-0.33c-2.83,0.5-4.85,3.1-4.57,6.01            c0.28,2.92,2.76,5.09,5.63,5.04c0.31-0.06,0.61-0.15,0.9-0.25V38.55z"/><g><path class="st5" d="M20.85,45.51c0.08,0.87,0.86,1.5,1.72,1.42c0.87-0.08,1.5-0.86,1.42-1.72s-0.86-1.5-1.72-1.42             c-0.87,0.08-1.64-0.55-1.72-1.42s0.55-1.64,1.42-1.72c0.87-0.08,1.64,0.55,1.72,1.42"/><line class="st5" x1="21.96" y1="40.64" x2="21.91" y2="40.09"/><line class="st5" x1="22.62" y1="47.48" x2="22.57" y2="46.93"/></g></g></g></g></g></g></g></g><g><g><path class="st5" d="M24.15,51.13c-0.88,0.47-1.42,1.39-1.29,2.35c0.11,0.76,0.61,1.37,1.29,1.7V51.13z"/></g></g><path class="st5" d="M24.15,47.15l-8.29,0.03c-2.69,0.01-4.87,2.2-4.86,4.9l0.11,22.09c0.01,2.69,2.2,4.87,4.9,4.86l8.14-0.03     V47.15z"/><path class="st5" d="M24.15,47.15l-8.29,0.03c-2.69,0.01-4.87,2.2-4.86,4.9l0.11,22.09c0.01,2.69,2.2,4.87,4.9,4.86l8.14-0.03     V47.15z"/><g><path class="st5" d="M24.15,47.15l-8.29,0.03c-2.69,0.01-4.87,2.2-4.86,4.9l0.11,22.09c0.01,2.69,2.2,4.87,4.9,4.86l8.14-0.03      V47.15z"/></g><g><path class="st5" d="M24.15,75.73l-12.86-3.84c-1.45-0.51-3.03,0.23-3.57,1.67C7.71,73.58,7.7,73.6,7.7,73.62      c-0.42,1.12-0.09,2.39,0.84,3.14c3.32,2.69,25.36,8.2,31.58,10.16L24.15,75.73z"/></g></g><g><path class="st26" d="M55.82,74.73L19.1,74.88c-2.69,0.01-4.89-2.16-4.9-4.86l-0.11-25.18c-0.01-2.69,2.16-4.89,4.86-4.9     l36.71-0.15c2.69-0.01,4.89,2.16,4.9,4.86l0.11,25.18C60.68,72.53,58.51,74.72,55.82,74.73z"/><g><g><ellipse transform="matrix(0.4613 -0.8872 0.8872 0.4613 -24.6217 62.7214)" class="st29" cx="39.34" cy="51.64" rx="2" ry="2.2"/></g></g><g><g><g><g><g><g><g><path class="st13" d="M35.69,51.5c-4.09,0.39-7.74-2.61-8.13-6.7c-0.39-4.09,2.61-7.74,6.7-8.13s7.74,2.61,8.13,6.7            C42.78,47.46,39.78,51.11,35.69,51.5z"/><circle class="st5" cx="34.97" cy="44.08" r="5.57"/><path class="st10" d="M40.52,43.55c0.28,2.92-1.73,5.52-4.57,6.02c-2.88,0.05-5.35-2.12-5.63-5.04            c-0.28-2.91,1.74-5.51,4.57-6.01C37.76,38.47,40.24,40.64,40.52,43.55z"/></g></g></g></g></g></g></g><g><g><g><g><g><g><g><path class="st13" d="M46.1,52.71c-4.09,0.39-7.74-2.61-8.13-6.7c-0.39-4.09,2.61-7.74,6.7-8.13s7.74,2.61,8.13,6.7            C53.19,48.67,50.19,52.32,46.1,52.71z"/><circle class="st5" cx="45.38" cy="45.29" r="5.57"/><path class="st10" d="M50.93,44.75c0.28,2.92-1.73,5.52-4.57,6.02c-2.88,0.05-5.35-2.12-5.63-5.04            c-0.28-2.91,1.74-5.51,4.57-6.01C48.17,39.67,50.65,41.84,50.93,44.75z"/></g></g></g></g></g></g></g><g><g><g><g><g><g><g><path class="st13" d="M26.09,51.2c-4.09,0.39-7.74-2.61-8.13-6.7c-0.39-4.09,2.61-7.74,6.7-8.13s7.74,2.61,8.13,6.7            C33.19,47.16,30.18,50.81,26.09,51.2z"/><circle class="st5" cx="25.38" cy="43.78" r="5.57"/><path class="st10" d="M30.92,43.25c0.28,2.92-1.73,5.52-4.57,6.02c-2.88,0.05-5.35-2.12-5.63-5.04            c-0.28-2.91,1.74-5.51,4.57-6.01C28.17,38.17,30.64,40.34,30.92,43.25z"/><g><path class="st11" d="M23.95,45.51c0.08,0.87,0.86,1.5,1.72,1.42c0.87-0.08,1.5-0.86,1.42-1.72s-0.86-1.5-1.72-1.42             c-0.87,0.08-1.64-0.55-1.72-1.42s0.55-1.64,1.42-1.72c0.87-0.08,1.64,0.55,1.72,1.42"/><line class="st25" x1="25.07" y1="40.64" x2="25.02" y2="40.09"/><line class="st25" x1="25.73" y1="47.48" x2="25.68" y2="46.93"/></g></g></g></g></g></g></g></g><g><g><g><g><g><g><g><path class="st13" d="M20.28,30.67c-3.21-1.94-4.24-6.12-2.3-9.33c1.94-3.21,6.12-4.24,9.33-2.3s4.24,6.12,2.3,9.33            C27.67,31.58,23.48,32.61,20.28,30.67z"/><path class="st10" d="M28.14,27.48c-1.38,2.29-4.27,3.09-6.62,1.92c-2.13-1.53-2.76-4.46-1.38-6.75            c1.38-2.28,4.27-3.09,6.61-1.91C28.89,22.27,29.52,25.2,28.14,27.48z"/><g><path class="st11" d="M21.82,25.34c-0.41,0.68-0.19,1.57,0.49,1.98s1.57,0.19,1.98-0.49c0.41-0.68,0.19-1.57-0.49-1.98             c-0.68-0.41-0.9-1.3-0.49-1.98c0.41-0.68,1.3-0.9,1.98-0.49s0.9,1.3,0.49,1.98"/><line class="st25" x1="25.28" y1="22.39" x2="25.55" y2="21.96"/><line class="st25" x1="22.04" y1="27.75" x2="22.3" y2="27.32"/></g></g></g></g></g></g></g></g><g><g><ellipse transform="matrix(0.9905 -0.1378 0.1378 0.9905 -7.0501 4.4361)" class="st29" cx="28.51" cy="53.13" rx="2.56" ry="2.32"/></g></g><path class="st26" d="M55.83,78.88l-36.71,0.15c-2.69,0.01-4.89-2.16-4.9-4.86l-0.11-22.09c-0.01-2.69,2.16-4.89,4.86-4.9     l36.71-0.15c2.69-0.01,4.89,2.16,4.9,4.86l0.11,22.09C60.7,76.67,58.53,78.87,55.83,78.88z"/><path class="st11" d="M55.83,78.88l-36.71,0.15c-2.69,0.01-4.89-2.16-4.9-4.86l-0.11-22.09c-0.01-2.69,2.16-4.89,4.86-4.9     l36.71-0.15c2.69-0.01,4.89,2.16,4.9,4.86l0.11,22.09C60.7,76.67,58.53,78.87,55.83,78.88z"/><g><path class="st48" d="M54.82,78.46L44.17,78.5c-7.62,0.03-13.82-3.65-13.85-11.27l-0.04-10c-0.03-7.62,6.12-10.12,13.74-10.15      l10.66-0.04c3.25-0.01,5.9,2.61,5.91,5.86l0.1,19.65C60.7,75.8,58.07,78.45,54.82,78.46z"/><path class="st11" d="M55.83,78.88l-36.71,0.15c-2.69,0.01-4.89-2.16-4.9-4.86l-0.11-22.09c-0.01-2.69,2.16-4.89,4.86-4.9      l36.71-0.15c2.69-0.01,4.89,2.16,4.9,4.86l0.11,22.09C60.7,76.67,58.53,78.87,55.83,78.88z"/><path class="st26" d="M46.62,63.53l-0.01-2.74c0-0.88,0.7-1.59,1.58-1.59L61,59.15c0.61,0,1.1,0.49,1.1,1.09l0.01,3.72      c0,0.61-0.49,1.1-1.09,1.1l-12.81,0.05C47.34,65.12,46.62,64.41,46.62,63.53z"/><circle class="st14" cx="50.73" cy="62.15" r="1.4"/><circle class="st41" cx="50.73" cy="62.15" r="0.68"/></g><g><g><g><g><g><path class="st10" d="M52.44,22.76l-2.92,11.88c-0.06,0.26,0.09,0.52,0.35,0.58l1.72,0.42c0.26,0.06,0.52-0.09,0.58-0.35          l2.92-11.88c0.06-0.26-0.09-0.52-0.35-0.58l-1.72-0.42C52.76,22.34,52.5,22.5,52.44,22.76z"/></g></g></g><g><g><rect x="50.2" y="26.69" transform="matrix(0.239 -0.971 0.971 0.239 12.7481 72.3666)" class="st14" width="4.68" height="2.73"/></g></g><g><g><g><path class="st11" d="M52.44,22.76l-2.92,11.88c-0.06,0.26,0.09,0.52,0.35,0.58l1.72,0.42c0.26,0.06,0.52-0.09,0.58-0.35          l2.92-11.88c0.06-0.26-0.09-0.52-0.35-0.58l-1.72-0.42C52.76,22.34,52.5,22.5,52.44,22.76z"/></g></g></g></g></g><g><path class="st44" d="M73.6,89.99h-6.24c-1.48,0-2.68-1.2-2.68-2.68V70.78c0-1.48,1.2-2.68,2.68-2.68h6.24V89.99z"/><path class="st24" d="M85.97,91.9H73.26c-1.33,0-2.41-1.08-2.41-2.41V68.41c0-1.33,1.08-2.41,2.41-2.41h12.71      c1.33,0,2.41,1.08,2.41,2.41v21.08C88.38,90.82,87.3,91.9,85.97,91.9z"/><path class="st49" d="M70.85,79.1v10.49c0,1.28,1.13,2.31,2.51,2.31h12.5c1.39,0,2.51-1.03,2.51-2.31V79.1H70.85z"/><path class="st50" d="M52.36,80.86c-7.23,0.82-14.33-0.52-17.9-1.38c-1.41-0.34-2.4-1.59-2.4-3.04v0c0-1.72,1.4-3.12,3.12-3.12      h8.62c4.32,0,8.67-0.71,12.56-2.59c3.51-1.69,8.32-1.04,8.32-1.04v17.96c0,0-12.87-0.51-18.71,0      c-5.62,0.49-26.91-4.85-34.34-10.88c-0.93-0.75-1.26-2.02-0.84-3.14c0.01-0.02,0.02-0.04,0.02-0.06      c0.53-1.44,2.12-2.18,3.57-1.67l17.76,5.31"/><path class="st49" d="M61.23,69.61v17.93c2.06,0.06,3.46,0.11,3.46,0.11V69.69C64.69,69.69,63.17,69.49,61.23,69.61z"/><path class="st28" d="M35.16,74.66l1.33,0.05c0.79,0.03,1.38,0.73,1.28,1.52l-0.13,0.96c-0.1,0.76-0.82,1.28-1.58,1.14      l-1.32-0.25c-0.71-0.14-1.18-0.82-1.07-1.53l0.12-0.76C33.9,75.12,34.49,74.64,35.16,74.66z"/><g><circle class="st33" cx="76.42" cy="71.93" r="2.28"/><circle class="st38" cx="76.42" cy="70.71" r="2.28"/></g></g><g><g><line class="st5" x1="26.33" y1="16.22" x2="26.33" y2="12.59"/><line class="st5" x1="21.96" y1="16.22" x2="21.96" y2="12.59"/></g><line class="st5" x1="24.14" y1="15.25" x2="24.14" y2="8.48"/></g><g><g><g><g><g><g><g><path class="st13" d="M47.81,23.89c-3.09,2.11-7.33,1.32-9.44-1.77c-2.11-3.09-1.32-7.33,1.77-9.44s7.33-1.32,9.44,1.77            C51.7,17.54,50.9,21.77,47.81,23.89z"/><path class="st10" d="M48.16,15.41c1.51,2.2,1.04,5.17-1,6.82c-2.27,1.3-5.2,0.66-6.71-1.54c-1.5-2.2-1.04-5.16,1-6.81            C43.73,12.57,46.66,13.21,48.16,15.41z"/><g><path class="st11" d="M43.6,20.28c0.45,0.66,1.34,0.82,2,0.38c0.66-0.45,0.82-1.34,0.38-2c-0.45-0.66-1.34-0.82-2-0.38             c-0.66,0.45-1.55,0.28-2-0.38c-0.45-0.66-0.28-1.55,0.38-2c0.66-0.45,1.55-0.28,2,0.38"/><line class="st25" x1="42.35" y1="15.9" x2="42.06" y2="15.48"/><line class="st25" x1="45.88" y1="21.07" x2="45.6" y2="20.65"/></g></g></g></g></g></g></g></g><g><g><line class="st5" x1="46.51" y1="9.64" x2="46.51" y2="6.01"/><line class="st5" x1="42.14" y1="9.64" x2="42.14" y2="6.01"/></g><line class="st5" x1="44.32" y1="8.68" x2="44.32" y2="1.9"/></g><line class="st5" x1="57.41" y1="22.74" x2="58.81" y2="18.17"/><line class="st5" x1="55.64" y1="20.46" x2="57.04" y2="15.89"/></g></g></g><g id="Layer_4"/></svg>